<svg xmlns="http://www.w3.org/2000/svg" xmlns:svg="http://www.w3.org/2000/svg" xmlns:xlink="http://www.w3.org/1999/xlink" id="svg993" width="38.775" height="37.158" version="1.1" viewBox="0 0 38.775 37.158"><metadata id="metadata997"/><defs id="defs965"><linearGradient id="b"><stop id="stop916" offset="0" stop-color="#fff"/><stop id="stop918" offset="1" stop-color="#fff" stop-opacity="0"/></linearGradient><linearGradient id="a"><stop id="stop921" offset="0"/><stop id="stop923" offset="1" stop-opacity="0"/></linearGradient><linearGradient id="h" x1="19.794" x2="20.657" y1="42.078" y2="10.919" gradientTransform="rotate(180,24.621031,23.498378)" gradientUnits="userSpaceOnUse"><stop id="stop926" offset="0" stop-color="#b6b6b6"/><stop id="stop928" offset=".5" stop-color="#f2f2f2"/><stop id="stop930" offset=".676" stop-color="#fafafa"/><stop id="stop932" offset=".841" stop-color="#d8d8d8"/><stop id="stop934" offset=".875" stop-color="#f2f2f2"/><stop id="stop936" offset="1" stop-color="#dbdbdb"/></linearGradient><linearGradient id="g" x1="50.153" x2="25.291" y1="-3.632" y2="-4.3" gradientTransform="matrix(-0.61298017,-0.62897814,0.62897814,-0.61298017,55.324594,49.845825)" gradientUnits="userSpaceOnUse"><stop id="stop939" offset="0" stop-color="#fff"/><stop id="stop941" offset="1"/></linearGradient><linearGradient id="f" x1="36.422" x2="35.814" y1="17.535" y2="11.41" gradientUnits="userSpaceOnUse"><stop id="stop944" offset="0" stop-color="#98a0a9"/><stop id="stop946" offset="1" stop-color="#c3d0dd"/></linearGradient><linearGradient id="e" x1="11.1" x2="17.393" y1="33.322" y2="39.609" gradientUnits="userSpaceOnUse"><stop id="stop949" offset="0" stop-color="#3465a4"/><stop id="stop951" offset="0" stop-color="#9fbce1"/><stop id="stop953" offset="0" stop-color="#6b95ca"/><stop id="stop955" offset=".75" stop-color="#3d6aa5"/><stop id="stop957" offset="1" stop-color="#386eb4"/></linearGradient><linearGradient id="j" x1="12.005" x2="10.651" y1="35.688" y2="33.195" gradientTransform="matrix(1.0072,-0.026365,0.026365,1.0072,1.5934,0.079191)" gradientUnits="userSpaceOnUse" xlink:href="#b"/><linearGradient id="i" x1="14.018" x2="15.416" y1="36.943" y2="38.268" gradientTransform="matrix(0.8781,-0.017324,0.017324,0.8781,2.1637,4.0679)" gradientUnits="userSpaceOnUse" xlink:href="#a"/><linearGradient id="k" x1="31.177" x2="40.859" y1="19.822" y2="9.657" gradientUnits="userSpaceOnUse" xlink:href="#b"/><radialGradient id="c" cx="24.812" cy="39.125" r="17.688" gradientTransform="matrix(1,0,0,0.37456,0,24.47)" gradientUnits="userSpaceOnUse" xlink:href="#a"/><radialGradient id="d" cx="24.812" cy="39.125" r="17.688" gradientTransform="matrix(1,0,0,0.37456,0,24.47)" gradientUnits="userSpaceOnUse" xlink:href="#a"/><linearGradient id="c-7" x1="74.911" x2="84.911" y1="32.362" y2="47.451" gradientUnits="userSpaceOnUse"><stop id="stop1030" offset="0" stop-color="#236b0d"/><stop id="stop1032" offset="1" stop-color="#081b04"/></linearGradient><linearGradient id="b-3" x1="73.839" x2="76.875" y1="34.429" y2="43.714" gradientUnits="userSpaceOnUse"><stop id="stop1035" offset="0" stop-color="#2edc32"/><stop id="stop1037" offset="1" stop-color="#11661d"/></linearGradient><linearGradient id="a-2" x1="72.946" x2="85" y1="35.589" y2="47.375" gradientUnits="userSpaceOnUse"><stop id="stop1040" offset="0" stop-color="#97ff82"/><stop id="stop1042" offset="1" stop-color="#ceff24" stop-opacity="0"/></linearGradient></defs><g id="g1683" transform="translate(-4.4706101,-4.9188367)"><path id="path971" fill="url(#h)" stroke="#888a85" d="m 31.335061,25.780755 -18.993,-19.4319995 c -0.76849,-0.87827 -3.2034999,-1.5571 -4.8304999,0 -1.5711,1.5036 -1.2076,3.6228997 0.32935,5.1597995 l 18.2239999,19.542 c -2.25,6.25 2.3039,11.5 8.1789,10.375 l 1.2625,-1.1527 -3.9522,-3.7326 -0.21957,-3.2935 2.9508,-2.6936 3.5264,0.38814 3.6229,3.4033 1.2701,-1.2549 c 0.59076,-5.6413 -5.3077,-10.683 -11.37,-7.3082 z" style="fill:url(#h)"/><path id="path973" fill="none" stroke="#fff" d="m 31.249023,27.217973 -19.203,-20.0280001 c -0.59491,-0.67989 -2.4798999,-1.2054 -3.7393999,0 -1.2162,1.164 -0.93485,2.8046 0.25496,3.9944001 l 18.4919999,19.621 c -1.5,6.5 1.8588,10.005 6.8588,9.8796 l 0.27013,-0.27338 -3.6029,-3.2363 -0.13017,-4.1818 3.6139,-3.2985 4.2423,0.45821 3.1766,2.9915 0.35264,-0.43006 c 0.3125,-5.9688 -6.4917,-8.6848 -10.585,-5.4973 z" opacity=".426"/></g><g id="g1053" transform="matrix(1.2597011,0,0,1.2597011,-83.16808,-27.65525)"><path id="path1047" fill="url(#c)" d="m 92.84375,27.40625 c -0.13452,0.02538 -0.26225,0.0786 -0.375,0.15625 l -17.4375,11.625 -7.4375,-5.59375 c -0.37401,-0.28054 -0.89393,-0.25858 -1.24295,0.0525 -0.34902,0.31108 -0.4304,0.82506 -0.19455,1.22875 l 8,13 c 0.15454,0.26849 0.42669,0.44835 0.73427,0.48526 0.30758,0.03691 0.61456,-0.07345 0.82823,-0.29776 l 18,-19 c 0.30093,-0.30499 0.36943,-0.76985 0.16929,-1.1487 -0.20014,-0.37885 -0.62275,-0.58424 -1.04429,-0.50755 z" style="fill:url(#c-7)"/><path id="path1049" fill="url(#b)" d="m 92.96875,27.96875 c -0.06678,0.0047 -0.13128,0.02616 -0.1875,0.0625 L 75,39.875 67.25,34.0625 c -0.1467,-0.16396 -0.39854,-0.17795 -0.5625,-0.03125 -0.16396,0.1467 -0.17795,0.39854 -0.03125,0.5625 l 8,13 c 0.06494,0.10448 0.17471,0.17287 0.29711,0.18511 0.1224,0.01224 0.24355,-0.03306 0.32789,-0.12261 l 18,-19 c 0.12804,-0.11568 0.1665,-0.30091 0.09509,-0.458 -0.07141,-0.15709 -0.23625,-0.24991 -0.40759,-0.2295 z" transform="translate(0,-0.012817)" style="fill:url(#b-3)"/><path id="path1051" fill="url(#a)" d="M 92.906,28.469 75,40.407 l -7.9062,-5.9375 7.9375,12.875 17.875,-18.875 z" transform="translate(0,-0.012817)" style="fill:url(#a-2)"/></g></svg>