<svg xmlns="http://www.w3.org/2000/svg" width="832" height="832" version="1" viewBox="0 0 624 624"><path d="M71 15c-12.8 3.3-25.3 11.1-32.1 19.9-6.9 9.1-9 12.8-11.5 20.6-3.1 9.7-3.5 21.6-1 31.5 1.7 6.8 8.5 22 9.9 22 .4 0 .7.5.7 1.1 0 1.5 5.2 8 13.6 16.9 3.9 4.1 8.4 8.9 10 10.7 1.6 1.7 7.9 8.4 14 15 6.2 6.5 12.6 13.4 14.4 15.3 9.9 10.8 24.5 26.4 31.6 33.9 4.4 4.7 10.1 10.8 12.5 13.5 2.4 2.7 6.2 6.7 8.4 9s8.7 9.3 14.5 15.5c5.8 6.3 12.1 13 14 15.1 1.9 2 8.2 8.8 14 15 5.8 6.2 11.9 12.7 13.5 14.4 1.7 1.8 8 8.5 14 15 6.1 6.5 14 15.1 17.7 19 3.7 3.9 6.8 7.4 6.8 7.7 0 .4-8 6-17.7 12.5-9.8 6.5-17.9 12.1-18.1 12.6-.2.4-.8.8-1.3.8s-4.3 2.3-8.4 5.1c-4.6 3.1-7.9 4.8-8.7 4.3-1.5-.9-28-20.6-28.8-21.4-.3-.3-5-3.8-10.5-7.9-5.5-4.1-10.2-7.7-10.5-8-.3-.3-1.3-1.1-2.2-1.6-1.7-1-53.4-39.7-56.8-42.6-1-.8-3.1-2.4-4.5-3.5-3-2.1-9.4-6.9-11-8.2-8.8-6.9-28.7-21.1-30.8-22-6.6-2.8-15.6-.7-20.9 5-4.6 4.9-6.2 9.5-5.4 15.9.6 4.4 1.9 7.3 7.4 15.9.9 1.4 1.7 2.8 1.7 3.2 0 .4.7 1.5 1.5 2.5s4.2 6.3 7.5 11.7c8.9 14.7 9.3 15.5 17.9 29.3 4.3 7.1 14 22.7 21.4 34.8 7.4 12.1 14.2 22.8 15 23.7.8 1 1.1 1.8.7 1.8-.4 0-.1.8.7 1.7 1.3 1.6 38 60.9 67.6 109.3 5.2 8.5 10.3 16.7 11.3 18.2 1.1 1.4 1.9 2.9 1.9 3.2 0 .3 1.4 2.5 3 4.9 1.6 2.5 3 4.9 3 5.5 0 .6.4 1.2.8 1.4.4.1 1.8 2 3.1 4.1 5.3 8.6 14.6 11.9 24.7 8.7 2.8-1 7.9-5.8 22.5-21.1 4.4-4.7 29-30.6 36.4-38.4 2.2-2.4 10.3-10.9 18-19 7.7-8.1 15.6-16.5 17.5-18.5 1.9-2.1 10.4-11 18.9-19.9l15.4-16.2 4.9 5.3c2.7 2.9 7.1 7.7 9.9 10.5l5 5.3-1.2 4.2c-.6 2.4-1.3 5-1.4 5.8-.2.8-1.1 4.6-2 8.4-2.3 9.9-3 17.3-3 32.6.1 14.9.7 20 3.6 31.7 1 4.3 2.1 8.7 2.4 9.7.2 1.1.9 2.4 1.5 3 .5.5 1 1.8 1 2.7 0 3.8 11.6 24.4 18.4 32.8 5.5 6.8 19.1 19.3 26 23.9 10 6.7 22.6 12.6 33.3 15.7 14.8 4.3 19 4.9 36.3 4.9 19.6.1 29-1.3 32.4-4.7 2.2-2.1 18.9-17.4 22.5-20.5l3.4-3-9.8-9.3c-5.4-5.2-11.4-11-13.5-12.9-2-1.9-9.2-8.7-16-15-23.4-22-28.5-27.4-28.7-30-.6-13.5-1.6-27.8-1.9-29.5-.3-1.1-.5-4.6-.5-7.7-.1-6.3-1.1-4.9 13.6-18.3 1.7-1.5 7.1-6.4 12-10.9 17.9-16.5 15.1-14.7 22.5-14.1 3.6.3 7.8.8 9.3 1.1 1.6.3 4.7.8 7 1 10.1.9 13.5 1.3 18.2 2 2.8.3 6 .7 7.2.8 2 .1 8.6 5.8 27.7 23.9 2.8 2.7 10.2 9.6 16.5 15.5 6.3 5.9 13.2 12.4 15.3 14.4 2.1 2.1 4.2 3.8 4.6 3.8 1.1 0 26.7-25.3 28-27.6.6-1.2.9-8 .7-16.9-.4-15.4-.6-17.7-2.4-25.5-.5-2.5-1.3-5.9-1.6-7.5-.4-1.7-1-3.9-1.5-5-.4-1.1-2-5.2-3.5-9-4.1-10.7-15.9-31.3-18.7-32.3-.4-.2-.8-.8-.8-1.4 0-1.6-19.8-20.8-25-24.3-2.5-1.6-4.7-3.2-5-3.5-.3-.3-2.2-1.4-4.2-2.5-2.1-1.1-3.8-2.3-3.8-2.7 0-.5-.5-.8-1.1-.8-.6 0-4.4-1.6-8.5-3.6s-8-3.7-8.7-3.8c-.7-.1-3.4-1-6.2-1.9-2.7-.9-6.2-1.8-7.7-2.1-1.5-.3-3.1-.7-3.5-.9-3.1-1.9-32.1-2.8-41.8-1.4-4.4.6-15 2.9-19.5 4.1-4.9 1.3-15.3 5.3-20.3 7.7l-5.8 2.8-10.7-11c-5.9-6.1-10.8-11.4-11-11.9-.3-.9 1.5-3 13-15.1 8.5-8.9 32.6-34.3 37.8-39.9 2.3-2.5 10.6-11.2 18.4-19.4 7.7-8.2 18.4-19.4 23.6-24.9 5.2-5.5 11.9-12.6 14.8-15.6 3-3.1 10.6-11.2 17-18 6.4-6.8 14.1-14.9 17.1-18 10.2-10.6 12.1-13.5 12.8-19 .8-6.9-1.2-12.7-5.8-17.2-7.5-7.2-18.4-7.4-27.6-.3-1.7 1.3-3.4 2.4-3.8 2.4-.3 0-1.1.5-1.8 1-2.7 2.3-21.9 15-22.7 15-.4 0-1 .3-1.2.7-.1.5-19.9 13.8-43.8 29.7-23.9 16-43.6 29.3-43.8 29.8-.2.4-.8.8-1.3.8-.4 0-12.4 7.8-26.6 17.2-14.2 9.5-26.2 17.5-26.8 17.7-.5.2-1.2.7-1.5 1-.7.9-10.6 7.1-11.3 7.1-.5 0-13-12.6-40.7-41-13.8-14.1-60.9-62.3-86.3-88.3-10.3-10.6-29.7-30.4-43-44-51.4-52.8-51.8-53.2-59.9-57.1-14.6-7.2-33.4-9.4-47.8-5.6z"/></svg>